# xmcd
# Track frame offsets:
# 150
# 19745
# 37915
# 60990
# 83342
# 103367
# 113452
# 133535
#
# Disc length: 1952 seconds
# Revision: 0
# Processed by: cddbd v1.5.1PL0 Copyright (c) Steve Scherf et al.
# Submitted via: VisiTrax 2.9.10.228 - For more info visit www.synapsa.com
#
DISCID=53079e08
DTITLE=Pure Praire League - Amie and Other Hits
DYEAR=1900
DGENRE=
TTITLE0=Amie
TTITLE1=Boulder Skies
TTITLE2=Early Morning Riser
TTITLE3=Angel #9
TTITLE4=Leave My Heart Alone
TTITLE5=Falling In and Out Of Love
TTITLE6=Angel
TTITLE7=Call Me, Tell Me
EXTD=
EXTT0=
EXTT1=
EXTT2=
EXTT3=
EXTT4=
EXTT5=
EXTT6=
EXTT7=
PLAYORDER=
